<svg width="120" height="120" viewBox="0 0 120 120" fill="none" xmlns="http://www.w3.org/2000/svg">
<path d="M118.205 74.5143C110.192 106.657 77.6358 126.219 45.4888 118.204C13.3553 110.19 -6.20637 77.6324 1.81058 45.4918C9.8205 13.3451 42.3763 -6.21803 74.5133 1.79541C106.658 9.80884 126.219 42.3702 118.204 74.5149L118.205 74.5143H118.205Z" fill="#F7931A"/>
<path fill-rule="evenodd" clip-rule="evenodd" d="M86.464 51.4517C87.6582 43.467 81.5792 39.1749 73.2666 36.3117L75.9633 25.4957L69.3793 23.8551L66.7542 34.3863C65.0233 33.9546 63.2457 33.5479 61.4791 33.1446L64.1232 22.5439L57.5433 20.9033L54.8452 31.7158C53.4128 31.3896 52.006 31.0673 50.6411 30.7277L50.6487 30.6937L41.5692 28.4264L39.8178 35.4585C39.8178 35.4585 44.7026 36.5783 44.5996 36.6472C47.2658 37.3126 47.7479 39.0775 47.6679 40.4765L44.5961 52.7984C44.7797 52.845 45.0179 52.9125 45.2806 53.0181L45.0896 52.9704L45.0894 52.9703C44.927 52.9297 44.7581 52.8874 44.5847 52.8459L40.2791 70.1072C39.9533 70.9172 39.1263 72.1328 37.2622 71.6712C37.3282 71.7668 32.4768 70.477 32.4768 70.477L29.208 78.0135L37.776 80.1495C38.7142 80.3848 39.6414 80.6264 40.5591 80.8657L40.5609 80.8662C41.2017 81.0332 41.838 81.1991 42.4702 81.3607L39.7457 92.3007L46.322 93.9413L49.0202 83.1174C50.8168 83.6051 52.5603 84.055 54.2671 84.4791L51.5781 95.2519L58.1624 96.8925L60.8866 85.973C72.1138 88.0978 80.5557 87.2411 84.109 77.0862C86.9722 68.9103 83.9665 64.1945 78.0599 61.1192C82.362 60.127 85.6024 57.2975 86.4663 51.4526L86.4643 51.4511L86.464 51.4517ZM71.4211 72.5457C69.5543 80.0469 57.8129 76.9457 52.4408 75.5268C51.9576 75.3992 51.5259 75.2852 51.1576 75.1937L54.773 60.7001C55.2219 60.8122 55.7705 60.9353 56.3919 61.0747L56.392 61.0747C61.9487 62.3218 73.3337 64.8768 71.4214 72.5457H71.4211ZM57.5066 54.348C61.9853 55.5433 71.7557 58.1508 73.4573 51.3332H73.4579C75.1954 44.3605 65.7002 42.2583 61.0628 41.2316C60.5411 41.1161 60.0809 41.0142 59.705 40.9205L56.4271 54.0653C56.7366 54.1425 57.0998 54.2394 57.5066 54.348Z" fill="white"/>
</svg>
